<svg id="Ebene_1" data-name="Ebene 1" xmlns="http://www.w3.org/2000/svg" xmlns:xlink="http://www.w3.org/1999/xlink" viewBox="0 0 276.4182 214.0051">
  <defs>
    <style>
      .cls-1 {
        fill: none;
      }

      .cls-2 {
        clip-path: url(#clip-path);
      }

      .cls-3 {
        fill: url(#Unbenannter_Verlauf_3);
      }

      .cls-4 {
        clip-path: url(#clip-path-2);
      }

      .cls-5 {
        fill: #fffef5;
      }
    </style>
    <clipPath id="clip-path" transform="translate(-4.6245 -3.7007)">
      <path class="cls-1" d="M197.1405,63.8785a2.4133,2.4133,0,0,0-2.002,2.404,29.36,29.36,0,0,1-.352,3.335c-.235,1.845-.233,5.25-.231,8.428.001,2.27-.352,3.335-.352,4.47a8.2317,8.2317,0,0,0,.236,1.56,12.14,12.14,0,0,1,.592,3.105,3.4983,3.4983,0,0,1-.235,1.164c-.472.853-.707,2.584-.704,6.102.001,2.157.238,4.171.356,5.518a5.52,5.52,0,0,0,1.771,3.868,3.6343,3.6343,0,0,1,1.298,3.132c.001.908.709,1.614,2.242,2.674,1.297.975,4.01,1.548,7.192,1.156a23.2,23.2,0,0,0,2.594-.547,12.5814,12.5814,0,0,0,6.129-3.934c0,.228.001,2.27-.115,4.895.001,2.611.12,4.072.12,5.547a10.1518,10.1518,0,0,1-.117,1.944l.002,2.043a8.1767,8.1767,0,0,1-.353,2.881c-.706,1.676-.823,3.507-1.293,5.948a12.6973,12.6973,0,0,1-2.473,5.98,3.3047,3.3047,0,0,1-2.121,1.057,4.4741,4.4741,0,0,1-2.24-.292.8884.8884,0,0,1-.355-.75,2.0558,2.0558,0,0,1,.588-1.322,2.0462,2.0462,0,0,0,.59-1.321,7.7142,7.7142,0,0,0-.237-1.333,2.17,2.17,0,0,0-2.594-1.382,2.8586,2.8586,0,0,0-.944.229,4.13,4.13,0,0,0-2.944,4.337c0,2.156,2.949,4.289,5.778,4.394a6.9754,6.9754,0,0,0,1.533-.075,9.8618,9.8618,0,0,0,5.305-2.471,18.7128,18.7128,0,0,0,5.772-8.317c1.413-4.146,1.998-11.256,2.587-13.939a35.08,35.08,0,0,0,.704-7.351,16.6,16.6,0,0,0-.12-2.482c0-.567-.119-1.121-.119-1.688-.001-2.497.587-4.953.585-8.245-.001-2.043-.473-3.8-.474-4.935,0-.227.118-.468.118-.696a6.906,6.906,0,0,0,.117-1.603c-.001-1.589-.356-3.361-.357-4.836a35.6271,35.6271,0,0,1,1.058-7.509,2.2568,2.2568,0,0,0,.117-.923c-.001-2.043-.947-5.898-1.065-7.473-.119-1.915-3.303-2.544-4.953-2.34-1.415.174-1.414,1.649-1.884,4.318a6.8646,6.8646,0,0,0-.117,1.604c.001,1.929.356,4.383.475,7.319.119,2.596.238,4.284.239,5.986.001.795.001,1.589-.116,3.761.001,1.701.355,2.68.356,4.041a11.9379,11.9379,0,0,1-.235,1.732,7.8617,7.8617,0,0,0-.235,2.072c.001,1.135.355,1.545.474,3.347,0,.567.118,1.006.118,1.347.001,1.248-.352,1.406-1.177,2.756a11.0113,11.0113,0,0,1-3.417,3.713,5.4348,5.4348,0,0,1-2.004.474c-1.297.16-2.712.221-3.537.323-1.179.145-1.415-.847-2.95-3.836-1.652-3.088-1.773-7.954-1.774-9.089,0-.794-.118-1.914-.118-2.936a4.6337,4.6337,0,0,1,.117-1.377,5.53,5.53,0,0,0,.117-1.376,9.46,9.46,0,0,0-.355-2.567,5.1115,5.1115,0,0,1-.119-1.347,10.9164,10.9164,0,0,1,.47-3.236,5.38,5.38,0,0,0,.235-1.845c-.001-1.249.234-2.64.233-4.342,0-.908-.119-1.802-.119-2.823a7.8717,7.8717,0,0,1,.117-1.604,5.1081,5.1081,0,0,0,.117-1.263,11.1008,11.1008,0,0,0-.827-3.53c-.354-1.091-2.595-1.496-3.774-1.918a2.2126,2.2126,0,0,0-.722-.124,1.86,1.86,0,0,0-.222.013M141.8345,41.79a3.64,3.64,0,0,0-1.886.914c-.59.413-.707,1.449-.707,2.584.001,1.702.357,3.815.357,4.836.001,1.703-.821,8.501-1.527,9.269-.59.754.002,4.881-.94,6.586-.942,1.592-.468,6.641-1.175,8.203-.589,1.549.001,2.157-1.058,5.012-.942,2.726-2.943,8.648-2.942,10.691a17.9062,17.9062,0,0,1-.823,5.55c-1.412,4.374-2.115,12.86-2.586,13.372-.59.413-2.479-5.37-2.598-7.285a61.99,61.99,0,0,0-2.835-10.319c-.945-1.927-.475-5.049-1.418-6.408a10.8279,10.8279,0,0,1-1.889-5.102c-.003-4.2-1.773-8.295-3.072-11.766-1.063-2.934-1.888-2.832-2.831-2.716-1.651.204-2.474,3.937-2.945,4.904-1.06,2.174-2.12,4.347-2.12,6.05.002,3.064-.232,5.817-1.057,6.6-1.414,1.309-2.351,13.116-3.647,14.978-.353.498-.353,1.178-.352,3.449.001,1.021-.117,1.83-.706,2.016-1.296.5-.706,2.471-2.002,4.56-1.178,2.189-1.411,6.871-2.589,8.265-1.178,1.508-1.883,7.383-2.826,7.499-1.061.131-1.772-7.045-2.127-8.704-.472-2.326-.593-6.624-1.066-10.425-.356-3.361-1.417-3.684-1.42-9.359-.002-3.631-1.655-6.266-1.657-9.67,0-1.93.117-2.966.117-3.874-.002-2.838-.357-5.404-.359-7.901-.001-3.291-1.062-4.636-1.182-8.14-.12-3.05-.946-3.515-.947-5.331,0-.341.118-.696.118-1.036a4.287,4.287,0,0,0,.117-1.149c-.001-2.044-.945-3.176-1.063-4.069-.119-.667-.591-2.084-2.006-1.909a4.6422,4.6422,0,0,0-2.357,1.425c-2.828,2.733-4.124,4.595-4.123,6.07.237,1.56,1.534,4.238,1.535,6.167a9.87,9.87,0,0,1-.47,2.783c.12,2.368.593,4.353.594,6.509.001,1.475.827,3.53,1.181,5.53a55.3442,55.3442,0,0,1,.829,6.594c.001,1.475-.234,2.3-.234,3.207.002,2.951.83,7.616,1.656,9.217a17.7572,17.7572,0,0,1,1.064,5.884c.001,1.249-.471,2.215-.47,3.236.001,1.703.945,3.629,1.419,6.976.474,3.914,1.771,4.662,1.772,6.024,0,.908-.471,1.648-.471,2.442.001,1.929,1.064,4.295,1.064,5.203.001,1.135,1.772,5.457,2.597,5.355.354-.044,1.061-.017,1.769-.104a2.99,2.99,0,0,0,2.121-1.057c1.296-1.521,2.475-2.234,3.063-4.804.706-2.47.587-4.612,1.766-6.233,1.178-1.508.47-1.647,1.765-3.85,1.296-2.089,1.766-5.326,2.826-7.954,1.295-3.223,1.763-9.298,3.767-11.587.942-1.138.468-5.96,1.174-7.75.943-2.159,3.062-7.982,3.652-8.055.942-.116,3.069,6.999,3.07,9.042.118,2.029.828,4.893,1.654,5.926.825,1.146.945,4.31,1.535,5.485.708,1.161,1.181,4.395,1.535,6.054a14.6664,14.6664,0,0,0,1.772,4.095c.944,1.585.237,2.921,1.298,4.379,1.062,1.345.12,3.05,1.418,4.479a2.2576,2.2576,0,0,0,2.005.661,6.153,6.153,0,0,0,2.829-1.371c.824-.783.941-3.975,2.118-6.844,1.178-2.983-.358-7.675,1.645-11.44,2.002-3.651,1.293-7.65,1.881-9.766.47-1.988,1.057-6.486,1.882-9.199.823-2.598.47-2.101,2.353-7.781s.822-7.593,1.645-10.419c.942-2.84,1.766-6.006,2.472-8.817s.351-4.47.939-6.473a37.4161,37.4161,0,0,0,1.529-6.203,6.4668,6.4668,0,0,0,.118-1.377,1.3575,1.3575,0,0,0-1.297-1.543,6.5608,6.5608,0,0,0-1.807-.317,3.4871,3.4871,0,0,0-.434.026m16.854-10.057c-.118.014-.236.143-.354.157a24.3837,24.3837,0,0,1-3.299,2.563c-1.886,1.141-1.294,4.587-1.764,9.071.001,1.249.237,2.468.238,3.83,0,1.475-.235,2.753-.234,4.001a60.8957,60.8957,0,0,1-.349,8.443,10.2282,10.2282,0,0,0-.117,1.944c.001,1.362.12,2.709.12,3.958.002,3.972.003,6.355-.113,8.526.001,1.93.474,3.461.592,5.603.001,2.156-.585,7.677-.584,10.514.002,3.745-.587,4.726-.703,8.827.002,2.383.121,5.092.359,7.446a21.7887,21.7887,0,0,1,.118,2.71,38.9859,38.9859,0,0,1-.468,5.96,10.8375,10.8375,0,0,0-.117,1.944c.002,2.723.593,4.921,1.89,4.988a5.4317,5.4317,0,0,0,1.296-.046c2.24-.276,2.711-1.697,3.3-3.471,0-.115.118-.242.118-.356a5.4789,5.4789,0,0,0,.352-2.2c0-1.362-.237-3.035-.238-4.738a19.5221,19.5221,0,0,1,.822-5.549,3.9888,3.9888,0,0,0,.352-1.973c0-1.135-.236-2.241-.237-3.716-.002-3.065-.121-4.64-.122-6.228a10.3056,10.3056,0,0,1,.117-1.944c.235-2.413-.001-3.518.705-5.535.824-2.032,1.294-4.587,2.119-6.05.942-1.479,2.003-1.837,3.064-2.649s1.768-1.92,3.889-2.522a3.4365,3.4365,0,0,1,3.539,2.287c.355,1.546,1.887,2.605,2.006,3.725a21.7492,21.7492,0,0,1,.828,4.439c.001,2.724.475,7.319.476,9.022.001,1.815-.471,1.76-1.059,3.875a12.3361,12.3361,0,0,0-.235,1.505,14.8036,14.8036,0,0,0,.473,2.326,7.0421,7.0421,0,0,1,.237,1.559,19.34,19.34,0,0,1-.588,3.705,2.8214,2.8214,0,0,0-.236.937,2.4015,2.4015,0,0,0,.945,1.813,19.9451,19.9451,0,0,0,2.713,1.708,1.7588,1.7588,0,0,0,1.179.309c.354-.043.825-.442,1.178-.486,1.061-.585,1.415-1.196,2.121-2.985a5.242,5.242,0,0,0,.235-1.164c0-1.021-.59-1.517-.709-2.75a4.7481,4.7481,0,0,1-.118-1.234c-.001-1.135.234-2.186.233-4.57-.001-2.043-.356-4.723-.475-6.524a68.09,68.09,0,0,1,.704-7.011,43.0286,43.0286,0,0,0-1.065-6.452c-.355-2.907-3.069-6.318-4.366-6.612-1.179-.309-3.183-.061-4.952-.865a1.7085,1.7085,0,0,0-1.061-.095c-1.651.203-3.654,1.926-4.95,2.426-1.651.657-4.125,3.46-5.186,3.59-.826.103-.827-2.622-.946-4.537-.001-1.475.234-3.774.233-5.817-.001-.681-.119-1.348-.12-2.028-.119-2.142-.944-2.608-.945-4.424-.001-.341.117-.695.117-1.035.47-2.67.702-9.849,1.055-11.595a14.0529,14.0529,0,0,0,.47-4.144c-.001-.908-.119-1.802-.12-2.936-.002-3.065.233-4.682.232-6.045,0-.453-.118-.779-.118-1.12a2.815,2.815,0,0,0-2.342-2.313.9992.9992,0,0,0-.135.008"/>
    </clipPath>
    <linearGradient id="Unbenannter_Verlauf_3" data-name="Unbenannter Verlauf 3" x1="1.0247" y1="263.3765" x2="2.0251" y2="263.3765" gradientTransform="matrix(146.0698, -18.0145, -0.0793, -148.2817, -55.7222, 39163.1462)" gradientUnits="userSpaceOnUse">
      <stop offset="0" stop-color="#f8ba9d"/>
      <stop offset="0.0021" stop-color="#f8bb9c"/>
      <stop offset="0.0712" stop-color="#fbcf8c"/>
      <stop offset="0.1488" stop-color="#fdde81"/>
      <stop offset="0.2419" stop-color="#ffe67a"/>
      <stop offset="0.3901" stop-color="#ffe978"/>
      <stop offset="0.6612" stop-color="#fffbd8"/>
      <stop offset="1" stop-color="#ffd800"/>
    </linearGradient>
    <clipPath id="clip-path-2" transform="translate(-4.6245 -3.7007)">
      <rect class="cls-1" x="4.6245" y="3.7005" width="276.418" height="214.005"/>
    </clipPath>
  </defs>
  <g class="cls-2">
    <polygon class="cls-3" points="73.022 28.031 219.158 10.008 219.225 135.516 73.09 153.538 73.022 28.031"/>
  </g>
  <g class="cls-4">
    <path class="cls-5" d="M244.6321,141.9405a9.554,9.554,0,0,0-.47,3.5763,71.81,71.81,0,0,0,.5937,7.6459,24.19,24.19,0,0,1,.2367,2.8081,22.0475,22.0475,0,0,1-.3512,3.9023l0,.794c.0008,1.476.4728,2.5523.5918,4.24,0,.4544-.4707,1.42-.47,1.9875.1193,2.2554.4738,4.255.4755,7.5466,0,.9077.0011,1.9293-.1164,3.1922-.35,5.3783-.4683,5.8463-1.0568,7.9622,0,.1139-.1179.3551-.1178.469.001,1.8155,2.95,3.4952,5.0716,3.2335,1.7685-.5586,3.3007-1.0882,3.3-1.6564l-.0028-5.1071c0-.4533-.1185-.8932-.1188-1.46a5.41,5.41,0,0,1,.5881-2.6831,1.4948,1.4948,0,0,0,.1176-.81c0-1.1345-.5906-1.97-.5912-3.2189-.0006-1.0206.3531-2.2.3511-6.0585a22.5859,22.5859,0,0,1,.703-6.7831,23.85,23.85,0,0,0,1.4106-9.0275c.5884-2.1159,1.0591-3.5362,4.1226-6.2969a7.7492,7.7492,0,0,1,4.2441-1.8857,2.9378,2.9378,0,0,1,3.3023,2.09c.3546,2.34,1.0619,1.5718,1.063,3.6151a12.45,12.45,0,0,0,.71,5.02,7.3294,7.3294,0,0,1,.4732,3.12A29.7986,29.7986,0,0,0,268.8123,162l0,.9078c.0014,2.4976-.8225,4.1882-.8212,6.6848a6.5355,6.5355,0,0,0,.1189,1.4614,18.18,18.18,0,0,1,.1195,2.4821c.0012,2.27-.3522,4.1291-.3508,6.6267.0017,3.2905.0028,5.2209-.1142,7.3916.0006,1.1344.8266,1.487,2.1238,1.327a16.712,16.712,0,0,0,2.0036-.4738c2.358-.6314,4.0061-5.2619,4.0052-7.0775a3.7916,3.7916,0,0,1-.2371-1.6735,2.9585,2.9585,0,0,1,.2354-1.5041c.3529-.7247.351-4.3568.35-6.74,0-.9078-.0014-2.6105.1157-4.4406,0-.34-.4717-.5091-.4719-.85a4.8876,4.8876,0,0,1,.5887-1.6616,7.6036,7.6036,0,0,0,.7048-3.4925c0-.7939-.1179-1.5744-.1183-2.2555a3.5288,3.5288,0,0,1,.1165-1.1489,3.1507,3.1507,0,0,0,.1176-1.0362c-.0007-1.2483-.4729-2.5523-.71-4.5664,0-.4533.1177-.9223.1173-1.6034a36.5056,36.5056,0,0,0-1.6537-5.6984c-1.0623-2.3658-4.8364-5.0782-9.08-4.5548-5.07.6252-5.54,1.9316-7.8977,3.5846s-2.9461,3.4274-4.0065,4.466a1.1908,1.1908,0,0,1-.7075.4278c-.5895.0727-.9433-.7915-.9443-2.4942-.0008-1.5888.1164-3.3051.1155-4.8949a12.2692,12.2692,0,0,0-.1192-2.1415c-.2368-1.1054-.7085-1.5016-1.4151-1.4145a10.5726,10.5726,0,0,0-2.0046.7017c-2.0035.8143-3.5356,1.5705-4.36,3.6018m-27.2243,17.3184a.5762.5762,0,0,1-.2365-.5381,9.4577,9.4577,0,0,1,.9413-3.1811,6.3776,6.3776,0,0,0,.235-2.1852c0-.6811,1.2949-2.6564,1.5308-3.2538a5.3063,5.3063,0,0,1,4.5966-3.4042c2.3571-.2907,2.9474.8849,4.01,2.7971,0,.1139.1172.0994.3537.6375a7.5243,7.5243,0,0,1,1.063,3.7279,6.4,6.4,0,0,1-.1173,1.49c-.3525,1.6334-2.1209,2.3049-4.5968,3.0647a13.0583,13.0583,0,0,1-1.8856.4592,28.35,28.35,0,0,1-3.066.0376c-.4714.0581-1.296.3865-2.0037.4738a1.6184,1.6184,0,0,1-.8249-.125m-1.7659,5.2124c.1166-1.0361.7055-2.2442,1.5313-2.3461a4.9941,4.9941,0,0,0,1.1791-.0315c.5895-.0727,1.179-.2593,7.5448-1.0444.2362-.0291,1.1791-.0315,2.4763-.1915.9428-.1163,2.1218-.3756,3.1827-.6192,2.4761-.646,3.7718-1.7136,3.7711-2.9629a28.4632,28.4632,0,0,0-2.1268-8.818c-1.2986-2.5633-2.1227-1.3271-2.1232-2.1211s-1.4163-1.7548-2.4773-1.7378a35.7118,35.7118,0,0,0-4.9517.1563c-2.24.2762-6.0116,2.4442-7.4252,3.8669a9.7168,9.7168,0,0,1-2.9469,1.8395c-.2361.2558-2.0028,2.1765-2.1205,2.8722a74.6879,74.6879,0,0,1-3.4148,8.48c-.5891.8666-2.3575,1.4253-2.3569,2.5607.0007,1.2483,1.2978.9745,1.2981,1.6556a27.8609,27.8609,0,0,0-.35,5.8327c.0009,1.5889.5908,4.1267.5915,5.4879a1.1738,1.1738,0,0,1-.2348.8239c-.118.1284-.236.2558-.236.37,0,.4544.472.9635.5906,1.8567a12.065,12.065,0,0,0,4.131,7.5491c3.1846,2.6723,4.1278,3.2371,5.4252,3.53s3.7727-.0109,4.0092.5272c.1183.326.4716.3963.825.3527a4.7059,4.7059,0,0,0,1.1789-.3731c3.1829-.3925,5.1876-.8665,6.7193-2.4176,2.475-2.4615,4.36-3.6018,4.8309-5.136a7.7825,7.7825,0,0,0,.2354-1.6179c-.0006-1.0216-.3544-1.8858-1.4164-1.7549-1.8856.3464-2.3569.6313-2.8277,1.8249a13.2117,13.2117,0,0,1-2.4743,4.05c-.4712.3987-1.5316,1.664-1.8859,1.7077a7.654,7.654,0,0,1-2.3573.064,6.9877,6.9877,0,0,1-5.3079-3.4311c-1.6522-2.8613-2.2426-4.4913-2.596-4.5606-.1181.0146-.2363-.0847-.2364-.3114s.1178-.6956.1174-1.2628a27.4033,27.4033,0,0,0-.4734-3.6878,7.0406,7.0406,0,0,1-.119-1.6882,20.0337,20.0337,0,0,1,.3523-3.9024c0-.4534-.2368-.9925-.2372-1.7864a2.52,2.52,0,0,1,.1176-.9224c0-.1138.47-1.8746.5881-2.6831M178.8384,131.213c-.353.7246-.2341,2.1861-.5876,3.7048a21.5269,21.5269,0,0,0-.47,2.6686,4.6219,4.6219,0,0,0,.4725,1.985,2.6358,2.6358,0,0,1,.3549,1.0908c0,.7949-.8253,1.01-.9422,3.1813-.1166,2.8517.0024,4.54-.587,4.8392-.4713.2848-2.593.887-3.3,1.6554-.2351.2557-.3532.3841-.353.6108,0,.5682.7083,1.162,1.18,1.5573.59.6083,1.5326.1515,2.1223.3055.3533.07.3536.6375.3541,1.4324,0,0-.2311,7.7466-.2294,11.0381.0018,3.1777.3576,7.7878.358,8.5817.0006,1.0216-.117,2.0578-.1164,3.1933,0,.9077.1191,1.8009.2378,3.0347a20.9634,20.9634,0,0,1,.12,3.277,2.733,2.733,0,0,0,.5906,1.9705c.8254,1.1466.4728,2.5523,1.1819,5.0755.59,2.5379,2.1234,2.4616,3.1851,3.8067s2.9476,1.3393,4.245,1.5189a24.9827,24.9827,0,0,0,4.127-.0546c1.8856-.2325,3.3-1.5415,4.95-3.2211,1.5317-1.4373,3.6528-3.4017,3.6519-4.99-.0006-1.2483.353-2.54.3524-3.6758a5.1674,5.1674,0,0,0-.237-1.333c-.4721-1.303-1.7693-1.2569-3.0665-1.0969a3.1611,3.1611,0,0,0-2.5917,3.3847c.0006,1.2483,1.5333,1.6265,1.534,2.8748.0009,1.5889-1.7652,4.645-3.77,4.8923a1.4927,1.4927,0,0,1-.7076-.0266,5.8812,5.8812,0,0,1-4.1279-3.4638c-.59-1.5161-.1191-1.801-1.2987-2.6772-1.0615-.7769-1.0633-4.2961-1.0643-6.1116-.0007-1.3622.1169-2.2845.1164-3.1923a10.8557,10.8557,0,0,0-.3547-2.5669,5.0332,5.0332,0,0,1-.3552-1.659c-.0006-1.0216.5885-1.8882.5873-4.1581-.0039-7.2642-.9475-8.6229-.9483-9.985-.0008-1.476.9414-2.9535.9406-4.3156,0-.3406-.1187-1.1209-.119-1.802,0-.9078.2352-1.8447,1.2961-2.0894a14.1922,14.1922,0,0,1,1.8867-.3455,9.8044,9.8044,0,0,0,2.7113-.4482,3.5986,3.5986,0,0,1,1.1791-.2593c1.178-.1453,2.7116-.1067,3.1832.2885.2354.1987.4716.17.8249.126.8257-.1018,1.8864-.8009,1.8859-1.7087,0-1.0216-.7091-2.637-1.4158-2.6627a18.928,18.928,0,0,0-3.184.166c-1.0609.2437-4.48.892-5.3047.9938s-2.5933.32-2.9479-.09a.8356.8356,0,0,1-.2355-.6521c0-.7949.3522-2.0868.47-3.4635l-.0014-2.61a2.8557,2.8557,0,0,1,.3526-1.4048,2.269,2.269,0,0,0,.2357-.9379,17.3758,17.3758,0,0,0-.4725-1.9841,43.948,43.948,0,0,0,.5857-5.4073c-.0009-1.5888-.8262-2.6216-1.4158-2.5489-.7076.0873-2.5924,2.0215-3.182,2.0942a2.1128,2.1128,0,0,0-1.8859,1.5949M135.5673,125.54c-.7076.2011-.8248,1.9174-.8238,3.8478.0009,1.5888.12,3.2759.1206,4.6381.0018,3.4054.0021,3.8588.3561,5.0635a11.9876,11.9876,0,0,1,.356,3.135,11.8214,11.8214,0,0,1-.7052,4.6271,7.7861,7.7861,0,0,0-.2351,2.0713c.0012,2.27.3574,5.8583.3588,8.356,0,.5672-.1175,1.149-.1173,1.6034-.1175,1.149-.2353,1.7308-.235,2.1852a5.39,5.39,0,0,0,.5907,2.0833,7.4925,7.4925,0,0,1,.5909,2.6516,3.0314,3.0314,0,0,1-.5886,1.7754c-.4711.6254-.588,3.0237-.5844,9.6058.0013,2.4976-.2329,4.3422-.2321,5.8182a6.5314,6.5314,0,0,0,.1189,1.5742,15.6523,15.6523,0,0,1,.3552,3.4747,8.5062,8.5062,0,0,1-.3518,2.8807,11.711,11.711,0,0,0-.235,2.2991c.0012,2.156.3559,4.8368.3571,6.9928,0,.5683-.1166,1.0361-.1161,1.9439.0011,1.93,1.4156,2.3231,3.0661,2.12a11.3752,11.3752,0,0,0,1.8866-.46,2.4174,2.4174,0,0,0,1.6492-2.7,2.2345,2.2345,0,0,1,.1176-.9223c.471-.853.2325-5.136.5844-7.9039a21.3892,21.3892,0,0,0,.1166-2.8517c-.0013-2.27-.2378-4.7376-.3567-6.199a13.6341,13.6341,0,0,1-.1193-2.2554,17.1879,17.1879,0,0,1,.469-4.4841,66.2466,66.2466,0,0,0,1.2931-7.8785c.3517-2.9936,2.2379-4.135,4.0057-5.942a6.3987,6.3987,0,0,1,3.6538-1.4723,9.6085,9.6085,0,0,1,2.5935.0207,7.8662,7.8662,0,0,1,3.0686,4.8429c.2363,2.128,1.0637,5.09,1.1828,6.892,0,.7939.1178,1.3467.1181,1.9149a7.1266,7.1266,0,0,1-.5871,2.7959,2.95,2.95,0,0,0-.2354,1.3913c.0006,1.2483.5908,2.4239.5916,3.9a22.5719,22.5719,0,0,0-.1168,2.5112c.0011,1.9294.2385,4.17.2394,5.8728a10.22,10.22,0,0,1-.1171,1.83c.0008,1.5889,2.3592,1.7525,4.2449,1.52s2.3569-2.6746,2.71-3.7388a6.29,6.29,0,0,0,.3531-2.2008,10.4038,10.4038,0,0,0-.2371-1.7864,13.33,13.33,0,0,1-.2363-1.9,3.5209,3.5209,0,0,1,.47-1.8747,3.4621,3.4621,0,0,0,.2344-1.7307c-.0009-1.59-.2374-3.9436-.2385-6.1007-.0011-1.9294.1167-2.625.1163-3.3051-.0015-2.8381-.3573-5.5177-.4764-7.4326-.1184-2.3693-1.77-4.4356-2.7151-6.4753-.944-1.927-3.7738-2.1452-6.3672-1.8254-.3543.0437-.7077-.0266-1.061.017-2.1219.2617-2.4758,1.2132-4.4794,1.8008s-5.3037,4.5131-6.1285,4.6148c-.1181.0146-.2362.0292-.2363-.1975-.1188-1.3476-.5911-2.8783-.9457-5.2185a14.3619,14.3619,0,0,1-.1194-2.3682,19.2891,19.2891,0,0,1,.7054-4.2866c-.0069-12.9384.3438-17.8623.3425-20.2461-.0011-2.0432-1.2978-2.7912-2.36-4.2492-.8263-1.0336-2.7132-1.1414-4.2456-.9525a5.2959,5.2959,0,0,0-1.4142.2883M120.38,167.8206c-.8244.6689-1.5321.6423-2.1208,2.3039a2.0229,2.0229,0,0,0,2.36,2.66c2.3581-.2908,3.1822-1.6408,4.0069-3.7859a6.8582,6.8582,0,0,0,.47-2.6686,8.87,8.87,0,0,0-.71-3.5438c-.7086-1.7292-4.0109-3.8187-6.7224-3.4843-3.1829.3925-7.3094,1.242-7.78,2.7751a2.5184,2.5184,0,0,1-2.2391,1.979,2.5433,2.5433,0,0,0-1.5316,1.665c-.1179.3541-.8241,1.35-1.2965,1.4082s-1.8848,1.8214-3.2989,4.3787-4.24,8.0143-4.2381,11.193-.1146,6.4837-.4677,7.0945c0,.1139-.1179.2413-.1179.3551,0,.5673.59,1.29.5907,2.0834a5.4794,5.4794,0,0,1-.3526,1.2919c.001,1.9294,1.8885,5.1022,3.5408,8.303a8.7852,8.7852,0,0,0,6.1336,4.8054,26.3626,26.3626,0,0,0,7.31.4607c3.6543-.4507,5.6587-1.4919,6.4831-2.3885a29.0247,29.0247,0,0,1,2.4749-2.6892,12.807,12.807,0,0,0,2.5914-4.0647.72.72,0,0,0,.1178-.469c0-.7939-1.18-.7623-1.7691-.69-1.2971.16-1.7685.332-2.24,1.0712-.707,1.2217-1.4124,3.5788-2.7092,4.5337a9.7261,9.7261,0,0,1-4.243,1.9983c-1.2972.16-2.0053-.5466-3.0667-1.3245s-2.2407-.9721-2.8314-3.0555-1.6535-5.3579-1.6541-6.6062c-.0006-1.0216-.4726-2.0979-.473-2.8928a.8848.8848,0,0,1,.1177-.5818,2.9868,2.9868,0,0,0,.3526-1.52,3.2426,3.2426,0,0,0-.3542-1.5453,1.8451,1.8451,0,0,1-.2366-.7647c0-.6811.3536-1.2931.3533-1.86,0-.6811-1.5333-1.6265-1.5333-1.6265.2351-.2567.9416-2.3862,1.1767-2.6429a8.6615,8.6615,0,0,0,1.06-2.287c.1174-1.3767.3535-1.5186,1.06-3.763a4.4322,4.4322,0,0,0,.2347-1.0506c0-.9078-.3541-1.4314-.3545-2.1125a2.9527,2.9527,0,0,1,.4707-1.5331c1.296-2.2033,2.1207-2.5317,3.1808-4.1385a6.2322,6.2322,0,0,1,3.8893-2.8626,7.8734,7.8734,0,0,1,1.5323-.3028,3.69,3.69,0,0,1,2.4767.4885c1.18.7634,1.7694,1.3717,1.77,2.3924a4.2833,4.2833,0,0,1-1.4138,3.0127M79.6018,194.6425c.001,1.8155.1191,1.9148.12,4.0709.0011,2.0432.2369,3.0348.2373,3.9436,0,.34-.1178.5818-.1176.8085-.2346,1.1645-1.7679,1.58-3.4183,2.0105a9.0187,9.0187,0,0,0-2.7111,1.0155,6.2973,6.2973,0,0,1-2.0035.7015,1.6554,1.6554,0,0,1-1.2975-.2944c-.8251-.6922-2.9469-.09-3.42-.8267-.3538-.75-1.5333-1.5137-2.1235-2.5754a7.984,7.984,0,0,1-1.1815-4.5083,4.452,4.452,0,0,1,1.6488-3.3812A12.5629,12.5629,0,0,1,68.4,193.7539a17.281,17.281,0,0,1,1.7685-.5587c1.7686-.2181,2.9461-1.2722,4.5966-1.4757,1.2972-.16,2.83-.0084,3.5379.6992.59.7212,1.2974.4073,1.2984,2.2238m-14.8631-14.399a2.397,2.397,0,0,0,1.885-1.5937,4.6568,4.6568,0,0,0,.1173-1.3767,12.9876,12.9876,0,0,1,.705-5.0815c.2348-.8229-.1187-1.12,1.4135-1.5366,2.0037-.5867,3.4179-2.6916,5.8932-2.9969,1.65-.2035,2.5947.475,3.3025,2.4311a9.7063,9.7063,0,0,1,.4743,3.46c.118,1.6882.7083,2.9767.7091,4.5665.0008,1.3611.3557,2.4529.4745,3.8.0005.9078.1183,2.1416.1189,3.39s-.1158,2.3982-.1156,2.8516c0,.3406-.2359.4835-.5892.5271a12.4574,12.4574,0,0,1-2.7129-.46,4.3089,4.3089,0,0,0-1.0611-.0958,21.6643,21.6643,0,0,0-2.24.7306,23.9375,23.9375,0,0,0-4.8328,1.6177,38.353,38.353,0,0,0-5.068,3.5762,19.3839,19.3839,0,0,0-4.595,4.7663c-.4718,1.1927-.2347,2.7524-.5878,3.25-.236.37-.7076.0873-.7068,1.6761,0,.34.1186.7794.1189,1.46.4739,4.4817,7.4309,6.9155,11.3215,6.4357.9438-.1164,1.7683-.6715,2.9474-.8169,2.24-.2763,2.7109-1.3561,3.3-1.4288a13.6339,13.6339,0,0,0,3.0642-1.5134,1.8387,1.8387,0,0,1,.8256-.4424.9081.9081,0,0,1,.826.3526,3.8115,3.8115,0,0,1,1.0624,2.7063,4.2138,4.2138,0,0,0,1.4161,3.1171,1.4138,1.4138,0,0,0,2.0037-.4738c.4721-.6255,1.2971-.2738,1.7682-.8992a6.29,6.29,0,0,0,.47-2.2142c.1177-.81.8252-1.1235.9419-3.7485.1161-1.831.2328-4.5688.2317-6.6121-.0009-1.7027-.2366-2.4676-.237-3.2625-.0005-.9078.2343-1.8445.2333-3.5472-.0012-2.3838-.121-5.5469-.71-6.8365a3.2931,3.2931,0,0,1-.2371-1.56c-.0007-1.3622.3517-3.2213.35-6.1723a15.6694,15.6694,0,0,0-.2371-3.4892c-.2368-.9925.1168-2.3983-.7094-3.09-.9434-.9053-1.0624-2.7073-1.7708-3.9812a7.7015,7.7015,0,0,0-3.6563-3.1814,6.8683,6.8683,0,0,0-4.4807-.6958c-3.4191.4217-5.0693,1.1925-5.6583,2.2868s-1.885,1.4809-3.4178,2.6916a7.5661,7.5661,0,0,0-2.4738,3.0286,8.6968,8.6968,0,0,1-1.5313,2.2322c-.5893.64-1.1782,1.7342-1.4132,4.0333.001,1.9294,1.77,2.2785,3.0671,2.1185M6.2381,139.56c-.8252,1.1234-1.1766,4.7991-1.1753,7.1818a7.6052,7.6052,0,0,0,.1191,1.9149,26.98,26.98,0,0,1,.71,3.7725,4.3006,4.3006,0,0,1-.3534,1.7453,3.49,3.49,0,0,0-.2346,1.1645c.001,1.9294,1.1815,4.5073,1.1823,5.9833.0009,1.5888-1.1767,4.4585-1.1755,6.7285.0009,1.7017.8264,3.0759.8273,4.6648a3.1985,3.1985,0,0,1-.2345,1.3911,30.8321,30.8321,0,0,0-.7041,6.6694c.0013,2.3837.5922,5.0353.5933,6.9647A4.1233,4.1233,0,0,1,5.439,189.6a7.177,7.177,0,0,0-.47,3.0091c.001,1.8165.2384,4.0573.2392,5.6462.0009,1.7016.2371,3.3753.2379,4.8513a4.9067,4.9067,0,0,1-.3521,2.3135,10.0535,10.0535,0,0,0-.47,3.4625c.0008,1.476.12,2.9365.12,3.9581,0,.7939-.1173,1.6034-.1169,2.2845,0,.9077.1189,1.5742.8257,1.7138.8259.2387,1.534.9463,2.2406.8592a1.1351,1.1351,0,0,0,.9436-.6836,4.98,4.98,0,0,0,.47-2.3281c-.0006-1.1355-.3547-2.454-.3554-3.8162-.0055-10.328.3473-11.3932.3465-12.8682a14.4968,14.4968,0,0,0-.3549-2.7935,13.7639,13.7639,0,0,1-.4744-3.8c-.0013-2.27.352-4.244.4693-5.7336.4668-8.7973.7015-9.8479.7-12.004,0-.9077-.1192-2.0286-.237-3.2625a40.91,40.91,0,0,1-.3566-4.2694,9.2109,9.2109,0,0,1,.3529-2.6542c.3525-1.6324.5872-4.3859.9406-4.4294s2.7145,5.4547,3.1865,6.4182c.7084,1.2739,2.479,4.9145,3.4227,6.3881s2.5948,2.2906,2.5961,4.6734a8.4886,8.4886,0,0,0,2.243,5.399c1.0618,1.3442,1.77,1.4836,2.0071,4.0649.12,2.5959,1.6529,4.2235,2.95,5.8791s2.4778,2.6456,2.5968,4.3338,1.6524,3.3146,2.7143,4.9993,2.36,3.0007,3.3036,4.4733c.8256,1.4871,1.8879,3.8539,4.0117,5.1809,2.0046,1.2279,2.2427,4.718,3.8932,4.5144s3.0643-1.2867,3.0629-3.8972c-.0019-3.5182.94-5.6777.9383-8.6277a8.1131,8.1131,0,0,0-.1181-1.6882,18.1877,18.1877,0,0,1-.1194-2.4821c-.0013-2.4976.351-4.3567.35-6.9672-.0017-3.1776.7038-7.2375.7025-9.7341-.119-1.5753-.2378-2.9219-.2386-4.3979s.1164-3.1923.2327-6.6122c-.0007-1.2483.1168-2.3973.1163-3.4189a19.192,19.192,0,0,1-.2374-2.127,15.0559,15.0559,0,0,1,.2347-2.8673,6.9554,6.9554,0,0,0,.1163-1.4894c-.0011-2.1561-.59-3.219-.5909-4.3544a2.7474,2.7474,0,0,1,.2346-1.2773,4.7664,4.7664,0,0,0,.2352-1.9585c-.0009-1.5889-.2382-3.7158-.2393-5.7591a13.7825,13.7825,0,0,1,.2345-3.0929c.9408-4.0889.2325-5.1371.8205-8.1608a39.124,39.124,0,0,0,.7049-5.0805,3.24,3.24,0,0,0-.1187-1.1209c-.354-1.3186-2.0046-1.2279-3.184-1.65a1.0456,1.0456,0,0,0-.59-.0411c-.8258.1018-1.2967,1.1816-1.4137,3.1255,0,.7939-.1162,1.83-.1156,2.9655a25.2827,25.2827,0,0,0,.4745,5.73,21.1006,21.1006,0,0,1,.71,4.112,5.9265,5.9265,0,0,1-.3533,1.9731,18.3922,18.3922,0,0,0-.3512,4.0162c.001,1.8155.12,3.73.1209,5.2063l.0014,2.6105c0,.34-.5852,8.0169-.5829,12.33A12.4226,12.4226,0,0,0,44.22,172.9c0,.4544.1186,1.007.119,1.5743.0016,3.0648-.7029,7.2374-.82,9.4081.0006,1.2493.12,3.05.12,4.2985a4.6938,4.6938,0,0,1-.1173,1.4906c-.471.9659-.35,8.4423-.5843,9.9463a.4338.4338,0,0,1-.3541.3842c-.8248.1018-2.7128-2.1622-3.0667-3.2541-.3541-1.3185-2.5962-5.0139-3.5413-7.1674a62.6816,62.6816,0,0,0-3.1865-6.3044c-1.062-1.7985-2.8309-2.1476-2.8324-4.9848a7.32,7.32,0,0,0-1.2988-4.8343c-.59-.8351-.8267-1.6009-1.062-1.7986a31.1106,31.1106,0,0,1-2.8328-5.553c-1.5355-3.7835-3.1861-3.9195-3.7773-6.7978s-2.949-4.0636-3.4218-6.502c-.3556-2.4529-2.715-4.432-3.1878-6.9844-.3547-2.5668-2.8329-6.0074-3.3048-6.7432-.2355-.4253-1.4148-.7343-2.5938-.5889a3.4,3.4,0,0,0-2.24,1.0712" transform="translate(-4.6245 -3.7007)"/>
    <path class="cls-5" d="M251.11,96.82a6.1964,6.1964,0,0,0-3.7872,1.79c-1.5285,1.2589-4.5486,3.3242-4.84,6.7977-.1522,1.8126.6032,2.2381,1.3324,2.9647,1.1931.8613,1.8207,2.7972,4.2,2.7129,1.4271-.0506,2.8095-1.4555,4.8712-1.5286,1.9038-.0675,3.8449-4.353,3.9717-5.8634.1648-1.9631.38-4.5313-1.01-4.9333-1.7186-.24-3.47-1.9853-4.7384-1.94m13.2617-65.6761c.0127-.1506.2661.5929.1266,2.2539a9.6646,9.6646,0,0,1-1.1095,3.8047c-1.7187,3.5241-2.4361,2.646-2.7472,4.4642-.3228,1.97-1.3192,4.4145-2.334,5.2029s-1.89-.083-2.981,1.6117c-.0634.7557-1.4721,2.4617-2.4167,4.3023-.0254.3021.0944.75.0564,1.2028a1.2049,1.2049,0,0,1-.2086.61c-.3432.3134-.9651.1844-1.32.6492a25.36,25.36,0,0,0-1.6427,2.6179c-1.3385,2.7581-2.3914,4-2.4674,4.9065l.5585.8838c-.1268,1.51-2.4109,2.3448-2.8555,3.8666a3.1,3.1,0,0,0-.4436,1.5216,4.6726,4.6726,0,0,0,.3235,1.7957c-.0126.15.1209.447.1082.5985-.0887,1.0568-1.1737.7941-1.941,4.2845l-.0507.6042a14.4436,14.4436,0,0,0,2.0369,7.7587c.2787.4424.2661.5929.2661.5929a1.6885,1.6885,0,0,1,.45.2852.8931.8931,0,0,0,.7428.5761s.6843-.6267,1.0021-.6379c1.2682-.045,3.0636,3.0543,3.8571,3.0262a11.0123,11.0123,0,0,0,4.8341-1.075,6.9528,6.9528,0,0,0,2.7149-2.2045,8.902,8.902,0,0,0,.704-2.7357c.006-1.9585-.9775-3.43-3.0392-3.3564-1.586.0562-3.6663,2.2383-3.7552,3.2961-.0253.3021-.3548.4639-.6726.4751a2.9531,2.9531,0,0,1-2.2263-1.7282,5.5224,5.5224,0,0,1-.6471-3.5913,22.5123,22.5123,0,0,1,.8307-4.2451c1.11-3.8047,1.56-3.52,3.964-7.67a16.5482,16.5482,0,0,1,4.2-4.8178l2.2392-2.1877a37.7651,37.7651,0,0,0,3.724-4.8c1.9848-2.9312.7984-1.9855,2.8925-4.3192l3.5835-3.1389a2.64,2.64,0,0,1,.26-1.214c.3548-.4639,1.7829-.5145,2.1251-.8279a26.87,26.87,0,0,0,3.0894-4.7784,2.8168,2.8168,0,0,0,.38-.766c.0888-1.0578-.0565-1.2027.02-2.109s.5392-.7726,1.7256-1.7182c.6969-.7772,1.3755-3.2108,1.6866-5.0289.0761-.9063-.5332-1.1859-.4825-1.79.0127-.1505.7107-.9287.7487-1.3814a28.7978,28.7978,0,0,0,.1455-3.6194c.0507-.6042.5781-1.2253.6162-1.6789a11.0115,11.0115,0,0,0-.8694-2.83c-.3615-1.343-.7115-2.8365-1.3324-2.9646l-.9514.0337c-.1336-.2964-.2925-.2908-.2671-.5929.0508-.6042.2224-.7613.2984-1.6676.0508-.6042-3.09-6.5156-6.8964-6.3806-1.11.0393-1.4525.3527-2.246.3808a2.8537,2.8537,0,0,1-1.3636-.7052c-1.9924-2.64-3.2606-2.595-8.3354-2.4151l-.9524.0338c-2.22.0787-6.1276,1.422-8.4117,2.2564-.8179.33-.9066,1.387-1.5539,1.5611a8.5849,8.5849,0,0,1-1.2565-.1066c-.4757.0169-1.3443.9513-1.6864,1.2646-.5148.47-1.3073.4986-2.4684,1.1422a8.3477,8.3477,0,0,0-3.4061,4.7887,2.0138,2.0138,0,0,1-1.7128,1.5667c.1589-.0057-2.1691,3.2388-2.3847,5.8071-.2536,3.0209,4.8785,7.808,7.0991,7.7293a3.4379,3.4379,0,0,0,1.3569-1.1018c.2156-2.5682.4886-3.9328.6915-6.35a16.9716,16.9716,0,0,1,1.3766-3.2118c.6025-1.5273,1.592-2.0136,1.7695-4.1282.0507-.6042-.2982-2.0978-.2475-2.702.0128-.1515,1.085.2627,1.8775.2346a3.55,3.55,0,0,0,2.284-.8344c1.3072-.4977,2.8417-3.714,6.4894-3.8434a6.8634,6.8634,0,0,1,1.7069.3908c2.4613.8163,5.8107,2.3536,6.3056,7.7574l.565,6.4561a3.372,3.372,0,0,1,.7105,2.8356l-.2664,3.1724c-.0126.15-.5137.47-.9894.4864-.7925.0281-1.6172,2.3157-1.6046,2.1652" transform="translate(-4.6245 -3.7007)"/>
  </g>
</svg>
