<svg id="Ebene_1" data-name="Ebene 1" xmlns="http://www.w3.org/2000/svg" xmlns:xlink="http://www.w3.org/1999/xlink" viewBox="0 0 927.92 329.25"><defs><style>.cls-1,.cls-4{fill:none;}.cls-2{clip-path:url(#clip-path);}.cls-3{fill:#fff;}.cls-4{stroke:#fff;stroke-width:5.82px;}</style><clipPath id="clip-path" transform="translate(-62.9 -315.19)"><rect class="cls-1" x="62.89" y="299.49" width="957.12" height="351.38"/></clipPath></defs><g class="cls-2"><path class="cls-3" d="M464.56,325h37.29v7H472.79v20.28h24.52v7H472.79V382.7h30v7H464.56Zm43.3,16.78h8.36L525.28,369c1.43,4.68,3,9.55,4.42,14.13h.4c1.43-4.58,3-9.45,4.42-14.13l9.06-27.23h7.94l-16.94,47.93h-9.43Zm48,35.48c0-10.44,9-15.65,29.43-17.88,0-6.16-2.06-12.1-9.89-12.1-5.54,0-10.53,2.63-14.29,5.14l-3.17-5.56c4.41-2.9,11.13-6.26,18.82-6.26,11.7,0,16.64,7.77,16.64,19.71v29.4h-6.7l-.68-5.73h-.27c-4.57,3.79-9.9,6.91-15.85,6.91C561.87,390.85,555.85,385.87,555.85,377.22Zm29.43.75V364.66c-16,1.94-21.48,5.87-21.48,12,0,5.45,3.69,7.67,8.39,7.67S580.64,382.06,585.28,378Zm23.22-36.23h6.7l.68,6.92h.27c4.57-4.5,9.5-8.1,16.08-8.1,10.09,0,14.63,6.52,14.63,18.74v30.37h-8.11V360.35c0-8.93-2.7-12.75-9-12.75-4.9,0-8.3,2.5-13.1,7.36v34.71H608.5Zm50.28,57.13c0-4.1,2.62-8,7-10.83v-.4a8.87,8.87,0,0,1-4.29-7.85c0-4,2.79-7.15,5.27-8.9v-.39a16.68,16.68,0,0,1-6.2-12.87c0-10.48,8.26-17.07,18-17.07a19.62,19.62,0,0,1,6.77,1.18h16.71V348h-9.84a13.8,13.8,0,0,1,3.91,9.86c0,10.26-7.75,16.61-17.55,16.61a17.06,17.06,0,0,1-7.14-1.62c-1.73,1.45-3,3-3,5.66,0,3,2,5.2,8.39,5.2h9.33c11.14,0,16.74,3.5,16.74,11.45,0,8.9-9.42,16.57-24.23,16.57C666.88,411.72,658.78,407.12,658.78,398.87Zm36.12-2.51c0-4.43-3.37-5.95-9.66-5.95H677a27.68,27.68,0,0,1-6.22-.71c-3.43,2.42-4.89,5.28-4.89,8,0,5.15,5.18,8.4,13.89,8.4C688.89,406.13,694.9,401.36,694.9,396.36Zm-6.15-38.73c0-7-4.53-11.19-10.18-11.19s-10.18,4.16-10.18,11.19S673.05,369,678.57,369,688.75,364.61,688.75,357.63Zm18.4,8.14c0-15.6,10.51-25.21,21.54-25.21,12.23,0,19.13,8.78,19.13,22.49a25.9,25.9,0,0,1-.38,4.6H715.17c.58,10.16,6.79,16.74,15.92,16.74A21,21,0,0,0,743,380.56l2.91,5.32a28.17,28.17,0,0,1-15.83,5C717.32,390.85,707.15,381.51,707.15,365.77Zm33.5-3.92c0-9.61-4.32-14.83-11.81-14.83-6.74,0-12.76,5.41-13.74,14.83Zm19,18.19V319.43h8.11v61.2c0,2.48,1.08,3.47,2.26,3.47a7,7,0,0,0,1.78-.2l1.1,6.19a12.93,12.93,0,0,1-4.67.76C762.1,390.85,759.6,387,759.6,380Zm23.65-53.38c0-3.19,2.45-5.24,5.6-5.24s5.6,2.05,5.6,5.24a5.61,5.61,0,0,1-11.2,0Zm1.49,15.08h8.11v47.93h-8.11Zm18.93,42.46,4-5.34c4.16,3.35,8.39,5.67,14.15,5.67,6.29,0,9.41-3.35,9.41-7.44,0-4.93-5.65-7.11-11-9.08-6.71-2.46-14.29-5.76-14.29-13.85,0-7.66,6.15-13.6,16.53-13.6a24.22,24.22,0,0,1,14.9,5.39l-3.88,5.19c-3.3-2.44-6.68-4.26-10.92-4.26-6,0-8.83,3.22-8.83,6.87,0,4.56,5.21,6.29,10.64,8.31,6.91,2.61,14.61,5.42,14.61,14.54,0,7.77-6.17,14.25-17.48,14.25A28.8,28.8,0,0,1,803.67,384.2Zm43.05-18.43c0-16,10.81-25.21,23.06-25.21a20.13,20.13,0,0,1,14,5.63l-4.15,5.36c-2.79-2.52-5.74-4.24-9.51-4.24-8.67,0-15,7.48-15,18.46s6,18.33,14.83,18.33c4.38,0,8.26-2.13,11.25-4.78l3.51,5.44a23.27,23.27,0,0,1-15.49,6.09C856.45,390.85,846.72,381.63,846.72,365.77Zm48.51-46.34h8.11v19.21l-.29,9.85c4.47-4.33,9.33-7.93,15.91-7.93,10.1,0,14.63,6.52,14.63,18.74v30.37h-8.11V360.35c0-8.93-2.7-12.75-9-12.75-4.9,0-8.29,2.5-13.1,7.36v34.71h-8.11Zm50.06,46.34c0-15.6,10.51-25.21,21.54-25.21,12.23,0,19.13,8.78,19.13,22.49a25.9,25.9,0,0,1-.38,4.6H953.31c.58,10.16,6.79,16.74,15.92,16.74a21,21,0,0,0,11.92-3.83l2.91,5.32a28.17,28.17,0,0,1-15.83,5C955.46,390.85,945.29,381.51,945.29,365.77Zm33.5-3.92c0-9.61-4.32-14.83-11.81-14.83-6.74,0-12.76,5.41-13.75,14.83Z" transform="translate(-62.9 -315.19)"/></g><path class="cls-3" d="M477.87,433.39h9.29L509,498.09h-8.72l-6.15-19.71H470.58l-6.22,19.71H456Zm14.25,38.42L489,462c-2.33-7.23-4.4-14.33-6.48-21.8h-.39c-2,7.5-4.08,14.57-6.41,21.8l-3.11,9.86ZM517,488.46V427.85h8.11v61.21c0,2.47,1.08,3.46,2.26,3.46a7,7,0,0,0,1.78-.2l1.1,6.19a13,13,0,0,1-4.67.76C519.53,499.27,517,495.39,517,488.46Zm25.14,0V427.85h8.1v61.21c0,2.47,1.08,3.46,2.27,3.46a6.89,6.89,0,0,0,1.77-.2l1.1,6.19a12.89,12.89,0,0,1-4.67.76C544.67,499.27,542.17,495.39,542.17,488.46Zm23.65-53.38c0-3.19,2.44-5.24,5.6-5.24s5.6,2.05,5.6,5.24a5.61,5.61,0,0,1-11.2,0Zm1.48,15.09h8.11v47.92H567.3Zm21.28,35.48c0-10.44,9-15.66,29.43-17.88,0-6.17-2.06-12.11-9.89-12.11-5.54,0-10.53,2.63-14.29,5.14l-3.17-5.56c4.4-2.89,11.13-6.26,18.82-6.26,11.69,0,16.64,7.78,16.64,19.71v29.4h-6.7l-.68-5.73h-.27c-4.57,3.8-9.9,6.91-15.85,6.91C594.6,499.27,588.58,494.29,588.58,485.65Zm29.43.75V473.09c-16.06,1.93-21.49,5.86-21.49,12,0,5.44,3.7,7.66,8.4,7.66S613.37,490.49,618,486.4Zm23.22-36.23h6.7l.68,6.91h.27c4.57-4.49,9.49-8.1,16.07-8.1,10.1,0,14.64,6.52,14.64,18.74v30.37h-8.11V468.77c0-8.92-2.7-12.74-9.05-12.74-4.89,0-8.29,2.5-13.09,7.36v34.7h-8.11Zm48.9,43.58,25.21-37H692.92v-6.6h32.67v4.33l-25.21,37h26v6.61h-36.3Z" transform="translate(-62.9 -315.19)"/><path class="cls-3" d="M458,553.34h8.5l6.79,35.23c1.25,6.95,2.54,13.9,3.79,20.86h.4c1.43-7,3-13.95,4.54-20.86l9-35.23h7.47l9,35.23c1.55,6.84,3.11,13.87,4.67,20.86h.39c1.25-7,2.41-14,3.66-20.86l6.79-35.23h8L517.47,618h-9.9l-9.79-38.89c-1.11-5-2.15-9.75-3.12-14.73h-.39c-1,5-2.13,9.68-3.24,14.73L481.44,618h-9.76ZM539.79,555c0-3.18,2.45-5.23,5.6-5.23S551,551.85,551,555a5.62,5.62,0,0,1-11.21,0Zm1.49,15.09h8.11V618h-8.11Zm24.24,38.3V547.81h8.11V609c0,2.48,1.08,3.47,2.27,3.47a6.89,6.89,0,0,0,1.77-.2l1.1,6.19a12.89,12.89,0,0,1-4.67.76C568,619.23,565.52,615.35,565.52,608.42Z" transform="translate(-62.9 -315.19)"/><g class="cls-2"><path class="cls-3" d="M217.88,403.77s-10-1.33-17.79-1.74c-5.37-.28-22.81.05-22.81.05s10.57-25.27,42.07-47.48c38.31-27,81.2-13.82,81.2-13.82s-.39,17.77,13.89,28.63c12.84,9.75,30.73,4.84,30.73,4.84s12.83,13.57,17.91,38.42A133.65,133.65,0,0,1,335.43,524c-38.15,47.28-86.47,57-86.47,57s-5.79-3.16-12.19-10.81c-6.7-8-8.08-12.74-8.08-12.74s69.14-20.53,97.8-75.65c18.84-36.26,6.32-86-26.65-101.68-51.48-24.45-82,23.6-82,23.6" transform="translate(-62.9 -315.19)"/><path class="cls-3" d="M361.62,342a26.83,26.83,0,1,1-26.83-26.84A26.83,26.83,0,0,1,361.62,342" transform="translate(-62.9 -315.19)"/><path class="cls-3" d="M116.56,472.55a26.83,26.83,0,1,1-26.83-26.83,26.83,26.83,0,0,1,26.83,26.83" transform="translate(-62.9 -315.19)"/><path class="cls-3" d="M352.57,592.46a26.41,26.41,0,1,1-26.41-26.41,26.42,26.42,0,0,1,26.41,26.41" transform="translate(-62.9 -315.19)"/><path class="cls-3" d="M204.92,592.64s-8.12-13.23-11.41-20.9-6.12-15-6.12-15-71.55-14.49-57.63-75.47c10.48-46,56.18-55.11,93.05-48.17,52.3,9.84,92.46,52.8,92.46,52.8s3.86-3.91,7.62-15.11a71.28,71.28,0,0,0,2.87-15.7s-31-36.77-94.56-51.38c-32-7.36-62.57-4.6-88.34,7.58-31.37,14.83-39.15,30.94-39.15,30.94s26.55,13.14,17.8,40.52C113.94,506.4,89.38,505,89.38,505s3.41,38.22,39.24,61c38,24.1,76.3,26.65,76.3,26.65" transform="translate(-62.9 -315.19)"/><path class="cls-3" d="M172.63,440.49S177,438,187.48,437a119.57,119.57,0,0,1,15.84-.68s-11.45,59.22,9.7,108.61c27.6,64.49,81.49,58.09,81.49,58.09s7.69,24.86,34,22.71c21.27-1.73,31.9-18.76,30.94-36.42-1.09-20.24-15.76-25.71-15.76-25.71s2.91-6.9,2.17-24.9c-.58-14-6.94-22.45-6.94-22.45A74,74,0,0,0,349.3,500c4-8.83,7.27-18.49,7.27-18.49s22.09,27.57,26.28,58.93-5.7,70.74-29.59,88.79c-30.7,23.19-100.06,23.9-146.88-26.84-35.87-38.88-39.46-79-39.89-108.36-.52-35.36,6.14-53.56,6.14-53.56" transform="translate(-62.9 -315.19)"/></g><line class="cls-4" x1="386.36" y1="211.88" x2="927.92" y2="211.88"/></svg>